<svg id="visual" viewBox="0 0 900 600" width="900" height="600" xmlns="http://www.w3.org/2000/svg" xmlns:xlink="http://www.w3.org/1999/xlink" version="1.1"><path d="M0 145L82 109L164 151L245 133L327 109L409 145L491 61L573 133L655 85L736 79L818 91L900 55L900 0L818 0L736 0L655 0L573 0L491 0L409 0L327 0L245 0L164 0L82 0L0 0Z" fill="#00cc8e"></path><path d="M0 205L82 199L164 199L245 187L327 205L409 193L491 109L573 211L655 175L736 151L818 187L900 103L900 53L818 89L736 77L655 83L573 131L491 59L409 143L327 107L245 131L164 149L82 107L0 143Z" fill="#00b98a"></path><path d="M0 319L82 277L164 271L245 229L327 289L409 259L491 157L573 313L655 223L736 211L818 295L900 181L900 101L818 185L736 149L655 173L573 209L491 107L409 191L327 203L245 185L164 197L82 197L0 203Z" fill="#00a784"></path><path d="M0 463L82 373L164 427L245 463L327 367L409 361L491 427L573 493L655 379L736 469L818 511L900 415L900 179L818 293L736 209L655 221L573 311L491 155L409 257L327 287L245 227L164 269L82 275L0 317Z" fill="#00957c"></path><path d="M0 601L82 601L164 601L245 601L327 601L409 601L491 601L573 601L655 601L736 601L818 601L900 601L900 413L818 509L736 467L655 377L573 491L491 425L409 359L327 365L245 461L164 425L82 371L0 461Z" fill="#038373"></path></svg>